<svg width="30" height="30" viewBox="0 0 30 30" fill="none" xmlns="http://www.w3.org/2000/svg">
<path fill-rule="evenodd" clip-rule="evenodd" d="M17.5 8.75H11.6667V5.83333C11.6667 2.61167 9.055 0 5.83333 0C2.61167 0 0 2.61167 0 5.83333C0 9.05499 2.61167 11.6667 5.83333 11.6667H8.75V17.5H5.83333C2.61167 17.5 0 20.1117 0 23.3333C0 26.555 2.61167 29.1667 5.83333 29.1667C9.055 29.1667 11.6667 26.555 11.6667 23.3333V20.4167H17.5V23.3333C17.5 26.555 20.1117 29.1667 23.3333 29.1667C26.555 29.1667 29.1667 26.555 29.1667 23.3333C29.1667 20.1117 26.555 17.5 23.3333 17.5H20.4167V11.6667H23.3333C26.555 11.6667 29.1667 9.05499 29.1667 5.83333C29.1667 2.61167 26.555 0 23.3333 0C20.1117 0 17.5 2.61167 17.5 5.83333V8.75ZM11.6667 17.5V11.6667H17.5V17.5H11.6667ZM20.4167 20.4167V23.3333C20.4167 24.9442 21.7225 26.25 23.3333 26.25C24.9442 26.25 26.25 24.9442 26.25 23.3333C26.25 21.7225 24.9442 20.4167 23.3333 20.4167H20.4167ZM5.83333 20.4167H8.75V23.3333C8.75 24.9442 7.44416 26.25 5.83333 26.25C4.2225 26.25 2.91667 24.9442 2.91667 23.3333C2.91667 21.7225 4.2225 20.4167 5.83333 20.4167ZM20.4167 8.75H23.3333C24.9442 8.75 26.25 7.44417 26.25 5.83334C26.25 4.2225 24.9442 2.91667 23.3333 2.91667C21.7225 2.91667 20.4167 4.2225 20.4167 5.83334V8.75ZM8.75 5.83334V8.75H5.83333C4.2225 8.75 2.91667 7.44417 2.91667 5.83334C2.91667 4.2225 4.2225 2.91667 5.83333 2.91667C7.44416 2.91667 8.75 4.2225 8.75 5.83334Z" fill="white"/>
</svg>
